<svg width="45" height="45" viewBox="0 0 45 45" fill="none" xmlns="http://www.w3.org/2000/svg">
<g clip-path="url(#clip0_1961_54)">
<path d="M3.22466 38.9095L0 44.9612V11.9871C0 5.35345 5.36149 0 12.0051 0H44.9899C35.6267 2.90948 25.875 9.46552 19.4257 16.9526C12.3159 25.1379 8.31419 30.7629 3.22466 38.9095Z" fill="#ffffff"/>
<path d="M45.0684 0C45.0684 0 30.6934 6.71121 26.3032 16.7974C23.9721 22.1897 23.3893 28.6681 19.1545 32.7414C16.2407 35.5345 12.1613 36.5819 8.58697 38.4052C6.25589 39.6078 1.90454 42.4785 0.0396729 45.0388H33.0633C39.7069 45.0388 45.0684 39.6853 45.0684 33.0517V0ZM61.7356" fill="#ffffff"/>
</g>
<defs>
<clipPath id="clip0_1961_54">
<rect width="45" height="45" fill="#ffffff"/>
</clipPath>
</defs>
</svg>